<svg xmlns="http://www.w3.org/2000/svg" width="15.774" height="15.771" viewBox="0 0 15.774 15.771">
  <path id="instagram-brands" d="M7.528,35.528a3.9,3.9,0,1,0,3.9,3.9A3.891,3.891,0,0,0,7.528,35.528Zm0,6.431a2.534,2.534,0,1,1,2.534-2.534A2.538,2.538,0,0,1,7.528,41.959Zm4.965-6.59a.909.909,0,1,1-.909-.909A.907.907,0,0,1,12.494,35.369Zm2.581.923a4.5,4.5,0,0,0-1.228-3.185,4.528,4.528,0,0,0-3.185-1.228c-1.255-.071-5.016-.071-6.271,0A4.521,4.521,0,0,0,1.206,33.1,4.513,4.513,0,0,0-.022,36.288c-.071,1.255-.071,5.016,0,6.271a4.5,4.5,0,0,0,1.228,3.185,4.534,4.534,0,0,0,3.185,1.228c1.255.071,5.016.071,6.271,0a4.5,4.5,0,0,0,3.185-1.228,4.528,4.528,0,0,0,1.228-3.185C15.146,41.3,15.146,37.546,15.075,36.291Zm-1.621,7.614a2.565,2.565,0,0,1-1.445,1.445,16.751,16.751,0,0,1-4.48.305,16.881,16.881,0,0,1-4.48-.305A2.565,2.565,0,0,1,1.6,43.906a16.752,16.752,0,0,1-.305-4.48,16.883,16.883,0,0,1,.305-4.48A2.565,2.565,0,0,1,3.048,33.5a16.751,16.751,0,0,1,4.48-.305,16.881,16.881,0,0,1,4.48.305,2.565,2.565,0,0,1,1.445,1.445,16.752,16.752,0,0,1,.305,4.48A16.743,16.743,0,0,1,13.453,43.906Z" transform="translate(0.361 -31.539)" fill="#fff" stroke="#fff" stroke-width="0.5"/>
</svg>
