<svg xmlns="http://www.w3.org/2000/svg" width="14.257" height="17.891" viewBox="0 0 14.257 17.891">
  <g id="padlock" transform="translate(-52)">
    <g id="Group_6" data-name="Group 6" transform="translate(52)">
      <g id="Group_5" data-name="Group 5">
        <path id="Path_1387" data-name="Path 1387" d="M64.16,6.569H62.9V3.7a3.775,3.775,0,0,0-7.548,0V6.569H54.1a2.1,2.1,0,0,0-2.1,2.1v7.128a2.1,2.1,0,0,0,2.1,2.1H64.16a2.1,2.1,0,0,0,2.1-2.1V8.666A2.1,2.1,0,0,0,64.16,6.569ZM56.751,3.7a2.377,2.377,0,0,1,4.752,0V6.569H56.751Zm8.108,12.1a.7.7,0,0,1-.7.7H54.1a.7.7,0,0,1-.7-.7V8.666a.7.7,0,0,1,.7-.7H64.16a.7.7,0,0,1,.7.7Z" transform="translate(-52)"/>
      </g>
    </g>
    <g id="Group_8" data-name="Group 8" transform="translate(57.836 9.994)">
      <g id="Group_7" data-name="Group 7">
        <path id="Path_1388" data-name="Path 1388" d="M220.293,286a1.293,1.293,0,0,0-.7,2.38v1.534a.7.7,0,1,0,1.4,0v-1.532a1.293,1.293,0,0,0-.7-2.381Z" transform="translate(-219 -286)"/>
      </g>
    </g>
  </g>
</svg>
