<svg xmlns="http://www.w3.org/2000/svg" width="16.194" height="16.706" viewBox="0 0 16.194 16.706">
  <path id="user" d="M14.725,10.478a7.461,7.461,0,0,0-1.911-1.234.617.617,0,0,0-.825.327.653.653,0,0,0,.317.851A6.222,6.222,0,0,1,13.9,11.447a2.608,2.608,0,0,1,.844,1.932v1.193a.636.636,0,0,1-.625.645H1.874a.636.636,0,0,1-.625-.645V13.379a2.608,2.608,0,0,1,.844-1.932A8.615,8.615,0,0,1,8,9.543,4.7,4.7,0,0,0,12.62,4.772,4.7,4.7,0,0,0,8,0,4.7,4.7,0,0,0,3.374,4.772,4.82,4.82,0,0,0,5.181,8.553a8.584,8.584,0,0,0-3.912,1.925A3.915,3.915,0,0,0,0,13.379v1.193a1.907,1.907,0,0,0,1.874,1.934H14.12a1.907,1.907,0,0,0,1.874-1.934V13.379a3.915,3.915,0,0,0-1.269-2.9ZM4.623,4.772A3.433,3.433,0,0,1,8,1.29a3.433,3.433,0,0,1,3.374,3.482A3.433,3.433,0,0,1,8,8.253,3.433,3.433,0,0,1,4.623,4.772Zm0,0" transform="translate(0.1 0.1)" stroke="#000" stroke-width="0.2"/>
</svg>
