<svg xmlns="http://www.w3.org/2000/svg" width="21" height="21" viewBox="0 0 21 21">
  <g id="Group_3006" data-name="Group 3006" transform="translate(-437 -4213)">
    <circle id="Ellipse_235" data-name="Ellipse 235" cx="10.5" cy="10.5" r="10.5" transform="translate(437 4213)" fill="#00a130"/>
    <path id="check-solid" d="M4.127,73.981.178,70.032a.608.608,0,0,1,0-.859l.859-.859a.607.607,0,0,1,.859,0l2.66,2.66,5.7-5.7a.608.608,0,0,1,.859,0l.859.859a.608.608,0,0,1,0,.859L4.986,73.981a.608.608,0,0,1-.859,0Z" transform="translate(441.426 4153.872)" fill="#fff"/>
  </g>
</svg>
