<svg xmlns="http://www.w3.org/2000/svg" width="33.619" height="33.619" viewBox="0 0 33.619 33.619">
                                    <g id="Group_54" data-name="Group 54" transform="translate(-53.191 -438.691)">
                                        <circle id="Ellipse_20" data-name="Ellipse 20" cx="15.5" cy="15.5" r="15.5" transform="translate(54.001 439.004)" fill="#888"></circle>
                                        <path id="Path_91" data-name="Path 91" d="M3069.3-781.62a16.809,16.809,0,0,1,16.809,16.809A16.809,16.809,0,0,1,3069.3-748a16.809,16.809,0,0,1-16.81-16.809,16.809,16.809,0,0,1,16.81-16.809Zm-5.822,15.953,1.138-1.252a2.292,2.292,0,0,0,.488-2.315l-.986-2.958a2.94,2.94,0,0,0-.924-1.386,2.35,2.35,0,0,0-1.05-.483,2.5,2.5,0,0,0-1.234.095,3.246,3.246,0,0,0-1.485,1.075,4.331,4.331,0,0,0-.921,2.414,8.138,8.138,0,0,0,.578,3.406,18.457,18.457,0,0,0,2.7,4.687,27.193,27.193,0,0,0,2.381,2.713,27.227,27.227,0,0,0,2.713,2.381,15.824,15.824,0,0,0,6.45,3.183,5.484,5.484,0,0,0,3.115-.264,3.593,3.593,0,0,0,2.017-2.052,2.486,2.486,0,0,0,.1-1.2,2.621,2.621,0,0,0-1.876-2.012l-2.958-.986a2.293,2.293,0,0,0-2.315.488l-1.252,1.138-.073-.043a18.234,18.234,0,0,1-3.715-2.848,18.241,18.241,0,0,1-2.848-3.715l-.043-.073Zm5.925-8.684a.638.638,0,0,1-.569-.7.638.638,0,0,1,.7-.569,11.857,11.857,0,0,1,7.084,3.492,11.858,11.858,0,0,1,3.492,7.084.638.638,0,0,1-.569.7.638.638,0,0,1-.7-.569,10.579,10.579,0,0,0-3.128-6.31,10.579,10.579,0,0,0-6.31-3.128Zm.292,2.9a.638.638,0,0,1-.569-.7.638.638,0,0,1,.7-.569,8.279,8.279,0,0,1,4.949,2.437,8.28,8.28,0,0,1,2.437,4.949.638.638,0,0,1-.569.7.638.638,0,0,1-.7-.569,7,7,0,0,0-2.073-4.175,7,7,0,0,0-4.175-2.073Zm.292,2.9a.638.638,0,0,1-.569-.7.638.638,0,0,1,.7-.569,4.7,4.7,0,0,1,2.814,1.381,4.7,4.7,0,0,1,1.381,2.814.638.638,0,0,1-.569.7.638.638,0,0,1-.7-.569,3.426,3.426,0,0,0-1.017-2.039,3.425,3.425,0,0,0-2.039-1.017Z" transform="translate(-2999.299 1220.311)" fill="#fff" fill-rule="evenodd"></path>
                                    </g>
                                    </svg>