<svg xmlns="http://www.w3.org/2000/svg" width="21.596" height="22.745" viewBox="0 0 21.596 22.745">
                                                <path id="Path_96" data-name="Path 96" d="M332.988,320.871l-4.938,2.1c-1.956.72-2.1,6-2.1,7.8l.008.5h21.58l.009-.5c0-1.8-.141-7.077-2.1-7.8l-4.938-2.1a2.859,2.859,0,0,1-1.406-1.326,6.112,6.112,0,0,0,1.41-2.474l.306-.179a7.518,7.518,0,0,0,.489-3.037l-.227-.174a6.886,6.886,0,0,0-.361-3.061,4.606,4.606,0,0,0-3.716-2.1h-.515a4.605,4.605,0,0,0-3.716,2.1,6.89,6.89,0,0,0-.361,3.061l-.227.174a7.522,7.522,0,0,0,.489,3.037l.306.179a6.11,6.11,0,0,0,1.41,2.474,2.859,2.859,0,0,1-1.406,1.326Z" transform="translate(-325.953 -308.515)" fill="#888" fill-rule="evenodd"></path>
                                            </svg>